<?xml version="1.0" encoding="UTF-8" standalone="no"?>
<svg width="36px" height="35px" viewBox="0 0 36 35" version="1.1" xmlns="http://www.w3.org/2000/svg" xmlns:xlink="http://www.w3.org/1999/xlink">
    <!-- Generator: Sketch 39.1 (31720) - http://www.bohemiancoding.com/sketch -->
    <title>Fill 51</title>
    <desc>Created with Sketch.</desc>
    <defs>
        <path d="M19.0001159,5 C11.2690789,5 5,11.2676878 5,18.9998841 C5,25.185502 9.01145933,30.433343 14.5741337,32.2845539 C15.2738149,32.4141503 15.5306893,31.9808487 15.5306893,31.6110702 C15.5306893,31.2772262 15.5177065,30.1743821 15.5116787,29.0045374 C11.616833,29.8514345 10.7949741,27.3527054 10.7949741,27.3527054 C10.1581205,25.7344898 9.24051335,25.304202 9.24051335,25.304202 C7.97028359,24.4352805 9.33626164,24.4531319 9.33626164,24.4531319 C10.7421155,24.5516622 11.482368,25.8958477 11.482368,25.8958477 C12.7310371,28.0361581 14.757516,27.4173877 15.5564231,27.0596647 C15.6820782,26.1550404 16.0449017,25.5369654 16.4452826,25.1875885 C13.3356655,24.8335748 10.0667771,23.6331277 10.0667771,18.2686732 C10.0667771,16.740178 10.6136783,15.4912772 11.509261,14.5108425 C11.3638998,14.157988 10.8846947,12.7342828 11.6448851,10.8058704 C11.6448851,10.8058704 12.8205258,10.4296005 15.4959139,12.2409356 C16.6126682,11.930739 17.8103333,11.775177 19.0001159,11.7698448 C20.1898986,11.775177 21.388491,11.930739 22.5073318,12.2409356 C25.1794742,10.4296005 26.353492,10.8058704 26.353492,10.8058704 C27.1155372,12.7342828 26.6361002,14.157988 26.490739,14.5108425 C27.3884082,15.4912772 27.9316001,16.740178 27.9316001,18.2686732 C27.9316001,23.6458787 24.6564521,24.8298655 21.5389526,25.1764604 C22.0411095,25.6109211 22.4885531,26.4629187 22.4885531,27.769083 C22.4885531,29.6420865 22.4723246,31.1497164 22.4723246,31.6110702 C22.4723246,31.9836307 22.7243304,32.420178 23.4339805,32.2826992 C28.9936411,30.4294018 33,25.1834154 33,18.9998841 C33,11.2676878 26.7318485,5 19.0001159,5" id="path-1"></path>
        <filter x="-50%" y="-50%" width="200%" height="200%" filterUnits="objectBoundingBox" id="filter-2">
            <feOffset dx="0" dy="2" in="SourceAlpha" result="shadowOffsetOuter1"></feOffset>
            <feGaussianBlur stdDeviation="2" in="shadowOffsetOuter1" result="shadowBlurOuter1"></feGaussianBlur>
            <feColorMatrix values="0 0 0 0 0   0 0 0 0 0   0 0 0 0 0  0 0 0 0.5 0" type="matrix" in="shadowBlurOuter1"></feColorMatrix>
        </filter>
    </defs>
    <g id="Page-1" stroke="none" stroke-width="1" fill="none" fill-rule="evenodd">
        <g id="Artboard" transform="translate(-1.000000, -3.000000)">
            <g id="Fill-51">
                <use fill="black" fill-opacity="1" filter="url(#filter-2)" xlink:href="#path-1"></use>
                <use fill="#D9D9D9" fill-rule="evenodd" xlink:href="#path-1"></use>
            </g>
        </g>
    </g>
</svg>