<?xml version="1.0" encoding="UTF-8" standalone="no"?>
<svg width="37px" height="35px" viewBox="0 0 37 35" version="1.1" xmlns="http://www.w3.org/2000/svg" xmlns:xlink="http://www.w3.org/1999/xlink">
    <!-- Generator: Sketch 39.1 (31720) - http://www.bohemiancoding.com/sketch -->
    <title>in</title>
    <desc>Created with Sketch.</desc>
    <defs>
        <path d="M9.8508545,31.325 L9.8508545,12.9875 L4.1508545,12.9875 L4.1508545,31.325 L9.8508545,31.325 Z M7.0008545,5 C5.1633545,5 3.9633545,6.2375 4.0008545,7.8875 C3.9633545,9.4625 5.1633545,10.7375 6.9633545,10.7375 C8.8383545,10.7375 10.0383545,9.4625 10.0383545,7.8875 C10.0008545,6.2375 8.8383545,5 7.0008545,5 L7.0008545,5 Z M15.4158545,31.325 L21.1158545,31.325 L21.1158545,20.75 C21.1158545,20.225 21.1908545,19.6625 21.3408545,19.325 C21.7158545,18.275 22.6533545,17.1875 24.2283545,17.1875 C26.2908545,17.1875 27.1158545,18.8 27.1158545,21.1625 L27.1158545,31.325 L32.8158545,31.325 L32.8158545,20.45 C32.8158545,15.05 30.0033545,12.575 26.2533545,12.575 C23.2158545,12.575 21.3408545,14.3375 20.5908545,15.5 L20.4783545,15.5 L20.2158545,12.9875 L15.2658545,12.9875 C15.3408545,14.6 15.4158545,16.55 15.4158545,18.8375 L15.4158545,31.325 Z" id="path-1"></path>
        <filter x="-50%" y="-50%" width="200%" height="200%" filterUnits="objectBoundingBox" id="filter-2">
            <feOffset dx="0" dy="2" in="SourceAlpha" result="shadowOffsetOuter1"></feOffset>
            <feGaussianBlur stdDeviation="2" in="shadowOffsetOuter1" result="shadowBlurOuter1"></feGaussianBlur>
            <feColorMatrix values="0 0 0 0 0   0 0 0 0 0   0 0 0 0 0  0 0 0 0.5 0" type="matrix" in="shadowBlurOuter1"></feColorMatrix>
        </filter>
    </defs>
    <g id="Page-1" stroke="none" stroke-width="1" fill="none" fill-rule="evenodd">
        <g id="Artboard" transform="translate(0.000000, -3.000000)">
            <g id="in">
                <use fill="black" fill-opacity="1" filter="url(#filter-2)" xlink:href="#path-1"></use>
                <use fill="#D9D9D9" fill-rule="evenodd" xlink:href="#path-1"></use>
            </g>
        </g>
    </g>
</svg>