<?xml version="1.0" encoding="UTF-8" standalone="no"?>
<svg width="37px" height="34px" viewBox="0 0 37 34" version="1.1" xmlns="http://www.w3.org/2000/svg" xmlns:xlink="http://www.w3.org/1999/xlink">
    <!-- Generator: Sketch 39.1 (31720) - http://www.bohemiancoding.com/sketch -->
    <title>Shape</title>
    <desc>Created with Sketch.</desc>
    <defs>
        <path d="M13.8275,31.3924613 C25.62,31.3924613 32.07,21.6224613 32.07,13.1499613 C32.07,12.8724613 32.07,12.5962113 32.05125,12.3212113 C33.3060392,11.4135999 34.3891943,10.2898105 35.25,9.00246129 C34.0798488,9.52096351 32.8385366,9.8609971 31.5675,10.0112113 C32.90593,9.20993886 33.9076544,7.94967627 34.38625,6.46496129 C33.1276969,7.21178043 31.7508076,7.73810131 30.315,8.02121129 C28.3276035,5.90795414 25.1696492,5.39072702 22.6119366,6.7595612 C20.054224,8.12839538 18.7328437,11.0428685 19.38875,13.8687113 C14.2336197,13.6102732 9.43059473,11.1753654 6.175,7.16996129 C4.47327845,10.0995172 5.34248485,13.8472856 8.16,15.7287113 C7.1396765,15.6984707 6.14159921,15.4232278 5.25,14.9262113 L5.25,15.0074613 C5.25083517,18.0594525 7.40218936,20.6881302 10.39375,21.2924613 C9.44983699,21.5498864 8.45947573,21.5875167 7.49875,21.4024613 C8.33868491,24.0142398 10.7457182,25.8034411 13.48875,25.8549613 C11.2184188,27.6392512 8.41382439,28.607871 5.52625,28.6049613 C5.01612946,28.603982 4.50650508,28.5730956 4,28.5124613 C6.93204494,30.394057 10.3436418,31.3921074 13.8275,31.3874613" id="path-1"></path>
        <filter x="-50%" y="-50%" width="200%" height="200%" filterUnits="objectBoundingBox" id="filter-2">
            <feOffset dx="0" dy="2" in="SourceAlpha" result="shadowOffsetOuter1"></feOffset>
            <feGaussianBlur stdDeviation="2" in="shadowOffsetOuter1" result="shadowBlurOuter1"></feGaussianBlur>
            <feColorMatrix values="0 0 0 0 0   0 0 0 0 0   0 0 0 0 0  0 0 0 0.5 0" type="matrix" in="shadowBlurOuter1"></feColorMatrix>
        </filter>
    </defs>
    <g id="Page-1" stroke="none" stroke-width="1" fill="none" fill-rule="evenodd">
        <g id="Artboard" transform="translate(-1.000000, -4.000000)">
            <g id="Shape">
                <use fill="black" fill-opacity="1" filter="url(#filter-2)" xlink:href="#path-1"></use>
                <use fill="#D9D9D9" fill-rule="evenodd" xlink:href="#path-1"></use>
            </g>
        </g>
    </g>
</svg>